<svg width="199" height="41" viewBox="0 0 199 41" fill="none" xmlns="http://www.w3.org/2000/svg">
<path d="M0.599609 34.7684H26.7476V40.1924H0.599609V34.7684ZM189.696 17.3564L197.94 8.26039H191.796L185.04 15.8204V8.26039H180.144V27.3764H185.064V19.3244L192.288 27.3764H198.6L189.696 17.3564ZM29.6276 18.6164C29.4956 22.2164 29.0396 22.9004 27.0476 22.9004V27.3884H27.7916C32.7956 27.3884 33.9836 24.8084 34.1636 19.0604L34.3796 12.7004H38.9996V27.3764H43.8956V8.26039H29.9636L29.6276 18.6164ZM8.37561 21.9044H18.6956L20.4116 27.3764H26.1356L18.4196 4.38439C17.6756 2.16439 16.8116 0.400391 13.8596 0.400391C10.9076 0.400391 10.0076 2.16439 9.21561 4.38439L1.12761 27.3764H6.50361L8.37561 21.9044ZM13.6076 6.40039H13.7396L17.1956 17.2964H9.92361L13.6076 6.40039ZM127.98 10.9724H122.52V5.57239H135.192V0.772391H117.384V27.3764H127.98C133.848 27.3764 137.22 24.4484 137.22 19.0964C137.22 14.0204 133.8 10.9724 127.98 10.9724ZM127.728 22.5644H122.52V15.6524H127.728C130.44 15.6524 131.964 16.8524 131.964 19.1084C131.964 21.3644 130.44 22.5644 127.728 22.5644ZM79.3076 7.81639V0.73639H74.4236V7.81639C71.8591 7.90099 69.4329 8.99995 67.6779 10.8718C65.923 12.7438 64.9827 15.2358 65.0636 17.8004C64.9762 20.3703 65.9132 22.8697 67.6686 24.7488C69.4238 26.628 71.8537 27.7328 74.4236 27.8204V35.0204H79.3196V27.8204C80.5926 27.7785 81.8449 27.4861 83.0046 26.9595C84.1644 26.4331 85.2089 25.683 86.0784 24.7522C86.9478 23.8214 87.6251 22.7283 88.0715 21.5354C88.5179 20.3425 88.7245 19.0732 88.6796 17.8004C88.731 16.5267 88.5281 15.2556 88.083 14.0612C87.6378 12.8667 86.9592 11.7729 86.0868 10.8435C85.2144 9.91423 84.1656 9.16783 83.0017 8.64811C81.8377 8.12839 80.582 7.84567 79.3076 7.81639ZM74.4356 23.2004C73.1399 23.0581 71.952 22.4121 71.1282 21.402C70.3043 20.3918 69.9104 19.0983 70.0316 17.8004C69.926 16.5057 70.3255 15.2204 71.1465 14.2138C71.9675 13.2072 73.1462 12.5574 74.4356 12.4004V23.2004ZM79.3316 23.2004V12.4004C80.621 12.5574 81.7998 13.2072 82.6207 14.2138C83.4417 15.2204 83.8412 16.5057 83.7356 17.8004C83.8504 19.097 83.4543 20.3871 82.6316 21.396C81.809 22.4047 80.6249 23.0522 79.3316 23.2004ZM107.028 21.5084V15.0644C107.028 10.3604 104.04 7.42039 99.0236 7.42039C94.0076 7.42039 91.0796 10.5404 90.8396 13.7924H95.7956C95.9636 13.0964 96.7076 11.8604 99.0116 11.8604C99.4424 11.8049 99.8792 11.8503 100.288 11.9931C100.699 12.1359 101.07 12.372 101.372 12.6829C101.674 12.9937 101.901 13.3707 102.033 13.784C102.165 14.1974 102.199 14.6358 102.132 15.0644H97.3316C92.9876 15.0644 90.4076 17.3564 90.4076 21.1484C90.3738 22.0533 90.5303 22.9552 90.867 23.7958C91.2038 24.6364 91.7133 25.3969 92.3627 26.0281C93.0119 26.6593 93.7865 27.1471 94.6363 27.46C95.486 27.7729 96.392 27.9038 97.2956 27.8444C98.3157 27.898 99.3332 27.6994 100.258 27.2662C101.184 26.8329 101.988 26.1784 102.6 25.3604C102.998 26.0342 103.579 26.5812 104.276 26.9379C104.972 27.2948 105.756 27.4468 106.536 27.3764H108.228V22.9604C107.4 22.9604 107.028 22.5644 107.028 21.5084ZM102.132 20.3084C102.152 20.7811 102.072 21.2527 101.895 21.692C101.72 22.1313 101.454 22.5285 101.114 22.8573C100.773 23.1861 100.368 23.4391 99.9224 23.5996C99.4772 23.7601 99.0032 23.8244 98.5316 23.7884C96.7676 23.7884 95.3756 23.1524 95.3756 21.2444C95.3756 19.3364 96.9236 19.0604 98.2316 19.0604H102.132V20.3084ZM56.0876 14.0684H52.5716V8.26039H47.6756V27.3764H56.1716C61.4876 27.3764 63.3716 23.9204 63.3716 20.6564C63.3956 16.4444 60.7556 14.0684 56.0876 14.0684ZM55.7276 23.2004H52.5716V18.4004H55.7276C57.4196 18.4004 58.4396 19.1684 58.4396 20.8004C58.4396 22.4324 57.4676 23.2004 55.7276 23.2004ZM155.904 21.5084V15.0644C155.904 10.3604 152.916 7.42039 147.9 7.42039C142.884 7.42039 139.956 10.5404 139.716 13.7924H144.672C144.84 13.0964 145.584 11.8604 147.888 11.8604C148.318 11.8049 148.755 11.8503 149.164 11.9931C149.575 12.1359 149.946 12.372 150.248 12.6829C150.55 12.9937 150.777 13.3707 150.909 13.784C151.041 14.1974 151.075 14.6358 151.008 15.0644H146.208C141.864 15.0644 139.284 17.3564 139.284 21.1484C139.25 22.0533 139.406 22.9552 139.743 23.7958C140.079 24.6364 140.589 25.3969 141.238 26.0281C141.888 26.6593 142.663 27.1471 143.512 27.46C144.362 27.7729 145.268 27.9038 146.172 27.8444C147.201 27.9081 148.231 27.7144 149.168 27.2809C150.104 26.8472 150.918 26.1872 151.536 25.3604C151.928 26.0224 152.498 26.5618 153.181 26.918C153.864 27.2742 154.632 27.4329 155.4 27.3764H157.092V22.9604C156.24 22.9604 155.904 22.5644 155.904 21.5084ZM151.032 20.3084C151.05 20.7806 150.968 21.2512 150.792 21.6897C150.615 22.1282 150.349 22.5246 150.009 22.853C149.67 23.1813 149.264 23.4344 148.82 23.5957C148.376 23.7568 147.903 23.8225 147.432 23.7884C145.668 23.7884 144.276 23.1524 144.276 21.2444C144.276 19.3364 145.824 19.0604 147.132 19.0604H151.032V20.3084ZM171.54 15.3764H164.784V8.26039H159.888V27.3884H164.784V19.8524H171.54V27.3764H176.436V8.26039H171.54V15.3764Z" fill="#EF3124"/>
</svg>
