<svg width="546" height="271" viewBox="0 0 546 271" fill="none" xmlns="http://www.w3.org/2000/svg">
<g clip-path="url(#clip0_175_18985)">
<path d="M313.074 265.207C309.694 265.204 306.454 263.857 304.066 261.461C301.677 259.065 300.335 255.816 300.335 252.429C300.335 249.041 301.677 245.792 304.066 243.396C306.454 241 309.694 239.653 313.074 239.651H502.421C501.469 237.898 500.063 236.435 498.352 235.416C496.641 234.396 494.687 233.857 492.696 233.855H116.323C111.413 233.861 106.706 235.82 103.236 239.303C99.7656 242.786 97.8168 247.507 97.8174 252.429C97.8199 257.35 99.7697 262.069 103.239 265.551C106.708 269.033 111.414 270.993 116.323 271.002H492.696C494.687 271 496.641 270.461 498.352 269.442C500.063 268.422 501.469 266.959 502.421 265.207L313.074 265.207Z" fill="#2C2C2E"/>
<path d="M502.673 246.692H322.647C322.372 246.691 322.108 246.581 321.913 246.385C321.719 246.19 321.609 245.925 321.609 245.649C321.609 245.372 321.719 245.107 321.913 244.912C322.108 244.716 322.372 244.606 322.647 244.605H502.673C502.949 244.606 503.213 244.716 503.407 244.912C503.602 245.107 503.711 245.372 503.711 245.649C503.711 245.925 503.602 246.19 503.407 246.385C503.213 246.581 502.949 246.691 502.673 246.692Z" fill="#CCCCCC"/>
<path d="M502.673 253.469H322.647C322.371 253.469 322.106 253.359 321.911 253.163C321.716 252.968 321.606 252.703 321.606 252.426C321.606 252.149 321.716 251.884 321.911 251.688C322.106 251.493 322.371 251.383 322.647 251.383H502.673C502.949 251.383 503.213 251.493 503.408 251.688C503.604 251.884 503.713 252.149 503.713 252.426C503.713 252.703 503.604 252.968 503.408 253.163C503.213 253.359 502.949 253.469 502.673 253.469Z" fill="#CCCCCC"/>
<path d="M502.673 260.25H322.647C322.372 260.25 322.108 260.139 321.913 259.944C321.719 259.748 321.609 259.483 321.609 259.207C321.609 258.931 321.719 258.666 321.913 258.47C322.108 258.275 322.372 258.165 322.647 258.164H502.673C502.949 258.165 503.213 258.275 503.407 258.47C503.602 258.666 503.711 258.931 503.711 259.207C503.711 259.483 503.602 259.748 503.407 259.944C503.213 260.139 502.949 260.25 502.673 260.25Z" fill="#CCCCCC"/>
<path d="M264.165 229.218C260.785 229.216 257.545 227.869 255.156 225.473C252.768 223.077 251.426 219.828 251.426 216.44C251.426 213.053 252.768 209.804 255.156 207.408C257.545 205.012 260.785 203.665 264.165 203.663H453.512C452.56 201.91 451.154 200.447 449.443 199.427C447.732 198.408 445.778 197.869 443.787 197.867H67.4144C62.504 197.873 57.7967 199.832 54.3266 203.315C50.8566 206.797 48.9077 211.518 48.9082 216.44C48.9108 221.362 50.8606 226.081 54.33 229.563C57.7994 233.045 62.505 235.005 67.4144 235.014H443.787C445.778 235.012 447.732 234.473 449.443 233.453C451.154 232.434 452.56 230.971 453.512 229.218L264.165 229.218Z" fill="#0568FD"/>
<path d="M453.764 210.703H273.738C273.463 210.703 273.199 210.592 273.004 210.397C272.81 210.201 272.7 209.936 272.7 209.66C272.7 209.384 272.81 209.119 273.004 208.924C273.199 208.728 273.463 208.618 273.738 208.617H453.764C454.04 208.617 454.305 208.727 454.5 208.923C454.695 209.118 454.804 209.384 454.804 209.66C454.804 209.937 454.695 210.202 454.5 210.398C454.305 210.593 454.04 210.703 453.764 210.703Z" fill="#CCCCCC"/>
<path d="M453.764 217.485H273.739C273.463 217.485 273.198 217.375 273.003 217.179C272.808 216.983 272.698 216.718 272.698 216.442C272.698 216.165 272.808 215.9 273.003 215.704C273.198 215.508 273.463 215.398 273.739 215.398H453.764C454.04 215.398 454.305 215.508 454.5 215.704C454.695 215.9 454.805 216.165 454.805 216.442C454.805 216.718 454.695 216.983 454.5 217.179C454.305 217.375 454.04 217.485 453.764 217.485Z" fill="#CCCCCC"/>
<path d="M453.764 224.266H273.738C273.463 224.265 273.199 224.155 273.004 223.959C272.81 223.764 272.7 223.499 272.7 223.223C272.7 222.947 272.81 222.682 273.004 222.486C273.199 222.291 273.463 222.18 273.738 222.18H453.764C453.901 222.179 454.036 222.206 454.163 222.258C454.289 222.311 454.404 222.387 454.501 222.484C454.598 222.581 454.675 222.696 454.728 222.823C454.78 222.95 454.807 223.086 454.807 223.223C454.807 223.36 454.78 223.496 454.728 223.623C454.675 223.749 454.598 223.864 454.501 223.961C454.404 224.058 454.289 224.135 454.163 224.187C454.036 224.239 453.901 224.266 453.764 224.266Z" fill="#CCCCCC"/>
<path d="M215.256 192.031C211.877 192.029 208.637 190.681 206.248 188.285C203.859 185.889 202.518 182.64 202.518 179.253C202.518 175.866 203.859 172.617 206.248 170.221C208.637 167.825 211.877 166.477 215.256 166.475H404.604C403.652 164.723 402.246 163.26 400.535 162.24C398.823 161.22 396.87 160.681 394.879 160.68H18.5059C13.5955 160.685 8.88819 162.645 5.41819 166.127C1.94819 169.61 -0.000610948 174.331 1.43673e-07 179.253C0.00248446 184.174 1.95227 188.893 5.4216 192.375C8.89093 195.857 13.5965 197.818 18.5059 197.826H394.879C396.87 197.825 398.823 197.286 400.535 196.266C402.246 195.246 403.652 193.783 404.604 192.031L215.256 192.031Z" fill="#CCCCCC"/>
<path d="M404.856 173.516H224.83C224.555 173.515 224.291 173.405 224.096 173.21C223.901 173.014 223.792 172.749 223.792 172.473C223.792 172.197 223.901 171.932 224.096 171.736C224.291 171.541 224.555 171.43 224.83 171.43H404.856C405.132 171.43 405.396 171.54 405.591 171.735C405.787 171.931 405.896 172.196 405.896 172.473C405.896 172.749 405.787 173.015 405.591 173.21C405.396 173.406 405.132 173.516 404.856 173.516Z" fill="#CCCCCC"/>
<path d="M404.855 180.297H224.83C224.693 180.297 224.558 180.27 224.431 180.218C224.305 180.165 224.19 180.088 224.094 179.992C223.997 179.895 223.921 179.78 223.868 179.653C223.816 179.527 223.789 179.391 223.789 179.254C223.789 179.117 223.816 178.981 223.868 178.855C223.921 178.728 223.997 178.613 224.094 178.516C224.19 178.42 224.305 178.343 224.431 178.29C224.558 178.238 224.693 178.211 224.83 178.211H404.855C404.992 178.211 405.127 178.238 405.253 178.29C405.38 178.343 405.494 178.42 405.591 178.516C405.688 178.613 405.764 178.728 405.817 178.855C405.869 178.981 405.896 179.117 405.896 179.254C405.896 179.391 405.869 179.527 405.817 179.653C405.764 179.78 405.688 179.895 405.591 179.992C405.494 180.088 405.38 180.165 405.253 180.218C405.127 180.27 404.992 180.297 404.855 180.297Z" fill="#CCCCCC"/>
<path d="M404.855 187.078H224.83C224.554 187.078 224.289 186.968 224.094 186.773C223.899 186.577 223.789 186.312 223.789 186.035C223.789 185.759 223.899 185.493 224.094 185.298C224.289 185.102 224.554 184.992 224.83 184.992H404.855C404.992 184.992 405.127 185.019 405.253 185.072C405.38 185.124 405.494 185.201 405.591 185.298C405.688 185.395 405.764 185.51 405.817 185.636C405.869 185.763 405.896 185.898 405.896 186.035C405.896 186.172 405.869 186.308 405.817 186.434C405.764 186.561 405.688 186.676 405.591 186.773C405.494 186.87 405.38 186.947 405.253 186.999C405.127 187.051 404.992 187.078 404.855 187.078Z" fill="#CCCCCC"/>
<path d="M409.013 112.701C408.025 112.7 407.075 112.322 406.355 111.645C405.635 110.968 405.198 110.042 405.134 109.054L404.556 100.212C404.489 99.1789 404.833 98.1615 405.514 97.3834C406.195 96.6053 407.156 96.1301 408.187 96.0624L477.297 91.5256C478.387 91.4541 479.48 91.5984 480.513 91.9502C481.547 92.302 482.502 92.8545 483.322 93.5761C484.143 94.2977 484.814 95.1743 485.297 96.1558C485.78 97.1373 486.065 98.2045 486.136 99.2965C486.208 100.388 486.064 101.484 485.713 102.52C485.362 103.556 484.811 104.513 484.091 105.336C483.371 106.159 482.496 106.831 481.517 107.315C480.538 107.799 479.473 108.085 478.384 108.156L409.273 112.693C409.186 112.699 409.099 112.701 409.013 112.701Z" fill="#0568FD"/>
<path d="M422.64 113.837C421.634 113.835 420.667 113.443 419.942 112.742C419.217 112.042 418.79 111.088 418.752 110.079L418.259 96.8724C418.24 96.3603 418.322 95.8494 418.5 95.369C418.677 94.8885 418.948 94.4479 419.296 94.0722C419.644 93.6966 420.062 93.3933 420.526 93.1797C420.991 92.966 421.493 92.8463 422.004 92.8272L478.836 90.698C479.868 90.6594 480.873 91.0332 481.63 91.7373C482.386 92.4413 482.833 93.4179 482.872 94.4521L483.364 107.659C483.383 108.171 483.302 108.682 483.124 109.163C482.946 109.643 482.675 110.084 482.328 110.459C481.98 110.835 481.562 111.138 481.097 111.352C480.632 111.566 480.13 111.685 479.619 111.704L422.787 113.834C422.738 113.836 422.689 113.837 422.64 113.837Z" fill="#3A3A3C"/>
<path d="M489.238 235.585H480.398C479.365 235.584 478.376 235.173 477.646 234.441C476.916 233.709 476.506 232.718 476.504 231.683V157.828C476.506 156.794 476.916 155.802 477.646 155.07C478.376 154.338 479.365 153.927 480.398 153.926H489.238C490.27 153.927 491.26 154.338 491.989 155.07C492.719 155.802 493.13 156.794 493.131 157.828V231.683C493.13 232.718 492.719 233.709 491.989 234.441C491.26 235.173 490.27 235.584 489.238 235.585Z" fill="#3A3A3C"/>
<path d="M450 196.544L442.44 191.951C441.558 191.414 440.924 190.548 440.679 189.543C440.433 188.538 440.595 187.476 441.129 186.591L479.32 123.433C479.856 122.548 480.72 121.914 481.722 121.667C482.725 121.421 483.784 121.583 484.667 122.118L492.227 126.711C493.109 127.249 493.743 128.115 493.988 129.12C494.234 130.125 494.072 131.186 493.538 132.072L455.347 195.23C454.811 196.114 453.947 196.749 452.945 196.995C451.942 197.242 450.883 197.08 450 196.544Z" fill="#3A3A3C"/>
<path d="M475.811 76.8477C492.682 76.8477 506.358 63.139 506.358 46.2285C506.358 29.318 492.682 15.6094 475.811 15.6094C458.941 15.6094 445.265 29.318 445.265 46.2285C445.265 63.139 458.941 76.8477 475.811 76.8477Z" fill="#0568FD"/>
<path d="M459.277 56.6836C458.295 56.3599 457.393 55.8292 456.632 55.127C456.128 54.6256 455.739 54.0198 455.493 53.352C455.247 52.6842 455.15 51.9706 455.208 51.2612C455.24 50.7557 455.388 50.2644 455.641 49.8259C455.893 49.3873 456.244 49.0132 456.665 48.7329C457.757 48.0305 459.218 48.0284 460.706 48.6856L460.649 36.7323L461.847 36.7266L461.913 50.7789L460.99 50.1969C459.92 49.5232 458.392 49.049 457.312 49.7436C457.045 49.9272 456.824 50.1699 456.666 50.4531C456.507 50.7362 456.417 51.052 456.4 51.376C456.36 51.9045 456.434 52.4355 456.616 52.9329C456.799 53.4303 457.086 53.8824 457.459 54.2584C458.782 55.5249 460.712 55.921 462.912 56.2749L462.722 57.4604C461.553 57.3051 460.4 57.0451 459.277 56.6836Z" fill="#2F2E41"/>
<path d="M448.301 36.13L448.144 37.3203L454.54 38.167L454.697 36.9768L448.301 36.13Z" fill="#2F2E41"/>
<path d="M468.49 38.8019L468.333 39.9922L474.729 40.8389L474.886 39.6486L468.49 38.8019Z" fill="#2F2E41"/>
<path d="M501.318 177.644H449.808C448.459 177.643 447.165 177.104 446.21 176.148C445.256 175.191 444.719 173.894 444.717 172.541L455.501 89.6504C455.509 88.3036 456.049 87.015 457.003 86.066C457.956 85.1171 459.246 84.585 460.589 84.5859H478.869C486.171 84.5942 493.171 87.5053 498.333 92.6805C503.496 97.8557 506.4 104.872 506.409 112.191V172.541C506.407 173.894 505.87 175.191 504.916 176.148C503.961 177.104 502.667 177.643 501.318 177.644Z" fill="#3A3A3C"/>
<path d="M545.634 144.978C545.952 145.661 546.067 146.421 545.964 147.167C545.861 147.914 545.545 148.614 545.055 149.185L539.275 155.89C538.941 156.278 538.534 156.596 538.077 156.826C537.62 157.056 537.122 157.194 536.613 157.231C536.103 157.268 535.59 157.205 535.105 157.044C534.62 156.882 534.171 156.627 533.784 156.292L481.376 110.905C480.549 110.19 479.872 109.318 479.381 108.341C478.891 107.363 478.598 106.298 478.518 105.206C478.439 104.114 478.574 103.018 478.918 101.979C479.261 100.94 479.805 99.979 480.519 99.1508C481.232 98.3226 482.102 97.6435 483.078 97.1523C484.053 96.661 485.116 96.3672 486.205 96.2877C487.294 96.2081 488.388 96.3444 489.424 96.6887C490.461 97.033 491.419 97.5785 492.245 98.2942L544.654 143.681C545.068 144.039 545.402 144.481 545.634 144.978Z" fill="#0568FD"/>
<path d="M534.067 130C534.385 130.683 534.5 131.443 534.397 132.19C534.294 132.936 533.978 133.637 533.488 134.207L523.616 145.66C522.94 146.442 521.983 146.924 520.953 146.999C519.924 147.074 518.907 146.737 518.125 146.062L475.09 108.793C474.703 108.458 474.386 108.05 474.157 107.592C473.927 107.134 473.79 106.635 473.753 106.124C473.715 105.613 473.779 105.099 473.94 104.613C474.1 104.126 474.355 103.676 474.69 103.289L484.561 91.8356C484.895 91.4478 485.302 91.1297 485.759 90.8997C486.216 90.6696 486.713 90.532 487.223 90.4947C487.733 90.4574 488.245 90.5212 488.731 90.6823C489.216 90.8435 489.665 91.0989 490.052 91.434L533.087 128.703C533.501 129.061 533.835 129.503 534.067 130Z" fill="#3A3A3C"/>
<path d="M476.383 28.0691C472.299 24.6819 466.841 27.8855 462.223 27.4308C457.805 26.9958 454.249 23.0985 453.28 18.9047C452.149 14.0119 454.6 9.04174 458.291 5.90741C462.334 2.47457 467.762 1.4078 472.935 1.93017C478.863 2.52886 484.325 5.18965 489.243 8.44021C493.987 11.4778 498.366 15.0556 502.29 19.102C505.806 22.8491 508.81 27.3382 509.839 32.451C510.774 37.0974 510.225 42.2765 507.551 46.2788C506.131 48.331 504.207 49.9818 501.966 51.0721C499.63 52.2775 497.131 53.1551 494.871 54.5109C491.455 56.5607 488.176 60.7385 489.339 64.9991C489.589 65.93 490.063 66.785 490.72 67.4889C491.509 68.3342 492.881 67.1712 492.09 66.3236C490.7 64.8351 490.716 62.8142 491.407 60.9922C492.231 58.9382 493.726 57.2257 495.648 56.135C498.013 54.7191 500.637 53.823 503.064 52.5281C505.388 51.3431 507.392 49.6129 508.906 47.4845C511.762 43.3426 512.538 38.0083 511.78 33.1016C510.959 27.7919 508.139 23.0065 504.641 19.0178C500.835 14.6771 496.192 11.0299 491.457 7.76405C486.377 4.25979 480.781 1.32194 474.633 0.337924C469.303 -0.515065 463.556 0.18202 458.966 3.17208C454.682 5.96311 451.445 10.6855 451.214 15.8979C451.14 18.2689 451.697 20.6168 452.83 22.7C453.962 24.7831 455.627 26.5263 457.654 27.7501C459.733 28.944 462.134 29.4535 464.517 29.2067C467.066 28.9943 469.605 28.1623 472.178 28.3309C473.341 28.3795 474.457 28.8069 475.357 29.5485C476.249 30.2885 477.267 28.8031 476.383 28.0691Z" fill="#2F2E41"/>
<path d="M440.464 187.658C440.475 187.59 440.488 187.522 440.503 187.455C440.609 186.953 440.814 186.478 441.105 186.056C441.396 185.635 441.768 185.275 442.198 184.999L449.627 180.195C450.495 179.636 451.549 179.444 452.558 179.662C453.567 179.88 454.448 180.491 455.009 181.36L477.925 216.974C478.485 217.844 478.677 218.9 478.459 219.912C478.241 220.924 477.631 221.807 476.764 222.368L469.335 227.171C468.467 227.731 467.413 227.923 466.404 227.705C465.395 227.487 464.513 226.876 463.953 226.007L441.037 190.393C440.513 189.584 440.309 188.609 440.464 187.658Z" fill="#3A3A3C"/>
</g>
<defs>
<clipPath id="clip0_175_18985">
<rect width="546" height="271" fill="white"/>
</clipPath>
</defs>
</svg>
