<svg width="10" height="17" viewBox="0 0 10 17" fill="none" xmlns="http://www.w3.org/2000/svg">
<path d="M9.65332 8.6543C9.64453 8.34668 9.53027 8.08301 9.29297 7.8457L2.45508 1.15723C2.25293 0.963867 2.01562 0.858398 1.72559 0.858398C1.13672 0.858398 0.679688 1.31543 0.679688 1.9043C0.679688 2.18555 0.793945 2.44922 0.996094 2.65137L7.14844 8.6543L0.996094 14.6572C0.793945 14.8594 0.679688 15.1143 0.679688 15.4043C0.679688 15.9932 1.13672 16.4502 1.72559 16.4502C2.00684 16.4502 2.25293 16.3447 2.45508 16.1514L9.29297 9.4541C9.53906 9.22559 9.65332 8.96191 9.65332 8.6543Z" fill="#F2F2F7"/>
</svg>
