<svg width="21" height="24" viewBox="0 0 21 24" fill="none" xmlns="http://www.w3.org/2000/svg">
<path d="M19.668 10C19.668 17 10.668 23 10.668 23C10.668 23 1.66797 17 1.66797 10C1.66797 7.61305 2.61618 5.32387 4.30401 3.63604C5.99183 1.94821 8.28102 1 10.668 1C13.0549 1 15.3441 1.94821 17.0319 3.63604C18.7198 5.32387 19.668 7.61305 19.668 10Z" stroke="white" stroke-width="2" stroke-linecap="round" stroke-linejoin="round"/>
<path d="M10.668 13C12.3248 13 13.668 11.6569 13.668 10C13.668 8.34315 12.3248 7 10.668 7C9.01111 7 7.66797 8.34315 7.66797 10C7.66797 11.6569 9.01111 13 10.668 13Z" stroke="white" stroke-width="2" stroke-linecap="round" stroke-linejoin="round"/>
</svg>
