<svg width="12" height="7" viewBox="0 0 12 7" fill="none" xmlns="http://www.w3.org/2000/svg">
<path d="M0.645089 5.47363L5.42257 0.589425C5.5858 0.413644 5.78041 0.332031 6.00014 0.332031C6.21987 0.332031 6.42076 0.419922 6.58398 0.589425L11.3552 5.47363C11.4933 5.61175 11.5686 5.78753 11.5686 5.9947C11.5686 6.41532 11.2422 6.74177 10.8278 6.74177C10.627 6.74177 10.4323 6.66643 10.2879 6.51576L6.00642 2.11496L1.71233 6.51576C1.57422 6.66016 1.3796 6.74177 1.17243 6.74177C0.758092 6.74177 0.431641 6.41532 0.431641 5.9947C0.431641 5.79381 0.506975 5.61175 0.645089 5.47363Z" fill="#1C1C1E"/>
</svg>
